<svg height="32" viewBox="0 0 32 32" width="32" xmlns="http://www.w3.org/2000/svg"><path d="m20.733272 10.631349c-1.056351-.566454-2.391831-.161549-2.960369.893683l-4.847494 8.997168c-.7401-.69729-1.34984-1.433706-1.940599-2.091428-.680709-.889677-1.7101559-1.672156-2.8472769-1.328879-1.1371209.343276-1.785651 1.552684-1.4423748 2.689806l-.010765.02007 5.0781037 7.693271.02939.04161-.0015.05092c.517171 1.114061 1.388425 2.140163 2.630453 2.806185l1.104025.592019c2.913121 1.562125 6.517215.474114 8.07934-2.439007l2.691-5.018296c.566455-1.056351.162669-2.393913-.893682-2.960369-.273497-.146659-.567288-.207275-.859657-.228373.237283-.948568-.185269-1.986051-1.081035-2.466395-.491793-.263718-1.047042-.312702-1.553783-.187064-.175747-.491614-.52379-.927009-1.015583-1.190727-.225823-.121095-.464668-.187785-.706927-.224009l1.442375-2.689806c.566456-1.056351.16267-2.393914-.893681-2.960369zm-.688896 1.284684c.3563.191061.488955.630492.297895.986791l-3.788927 7.06576 1.284683.688895 1.377791-2.569367c.191061-.356299.630492-.488955.986791-.297894s.488954.630491.297893.98679l-1.377791 2.569367 1.284684.688896 1.377791-2.569367c.191061-.356299.630492-.488955.986789-.297895.3563.191061.488956.630491.297895.986791l-1.377792 2.569366 1.344904.721188.688896-1.284684c.19106-.356298.63049-.488955.986789-.297894.3563.191061.488955.630492.297895.98679l-2.690999 5.018297c-1.193458 2.225613-3.880147 3.036676-6.105762 1.843218l-1.104025-.59202c-.940931-.504563-1.573599-1.276729-1.976768-2.145516l-4.9702491-7.429488c-.2696744-.382338-.1542901-.815043.2224175-1.077327.3709204-.258255.8391124-.159521 1.0981191.269111l3.8478455 4.15702 5.726446-10.678933c.191061-.356299.630491-.488956.986789-.297895z"/><g stroke-width="2.82709" transform="matrix(.9085186 -.41784441 .41784441 .9085186 -1.824405 4.248316)"><path d="m5.9312032 11.924551 2.283881-.02608 2.4107428-.02752.09617-1.8886151 4.216242 2.7328201-4.390997 2.691097.022-1.928584-4.6678218.02857z"/><path d="m11.083154 13.423247-2.2837074-.038454-2.4105577-.040588-.1494802 1.885144-4.1373582-2.850836 4.4652667-2.5659797-.0764741 1.9271937 4.6667669.103301z"/></g></svg>