<svg viewBox="0 0 595.28 592.25" xmlns="http://www.w3.org/2000/svg"><g fill-rule="evenodd"><path d="m297.41 98.07c47.34 0 85.77 43.45 85.77 85.27s-68.69 122.27-85.77 122.73-85.77-80.9-85.77-122.73 38.43-85.27 85.77-85.27z"/><path d="m107.78 422.63c-23.67-41-5.26-96 30.96-116.91s140.23-1.65 149.17 12.91c8.94 14.57-27.18 114.73-63.4 135.64s-93.06 9.35-116.73-31.64z"/><path d="m487.03 422.82c-23.67 41-80.51 52.55-116.73 31.64s-71.54-120.62-63.4-135.64 112.95-33.83 149.17-12.91c36.22 20.91 54.63 75.92 30.96 116.91z"/><path d="m475.82 0h-355.35c-65.37 0-118.45 53.08-118.45 118.45v355.35c0 65.37 53.08 118.45 118.45 118.45h355.35c65.37 0 118.45-53.08 118.45-118.45v-355.35c0-65.37-53.08-118.45-118.45-118.45zm83.45 452.8c0 57.65-46.8 104.45-104.45 104.45h-313.35c-57.65 0-104.45-46.8-104.45-104.45v-313.35c0-57.65 46.8-104.45 104.45-104.45h313.35c57.65 0 104.45 46.8 104.45 104.45z"/></g></svg>