<?xml version="1.0" encoding="UTF-8"?>
<svg id="Capa_1" data-name="Capa 1" xmlns="http://www.w3.org/2000/svg" viewBox="0 0 595.28 592.25">
  <defs>
    <style>
      .cls-1 {
        fill-rule: evenodd;
      }
    </style>
  </defs>
  <path id="wing_blue" data-name="wing  blue" class="cls-1" d="M297.41,98.07c47.34,0,85.77,43.45,85.77,85.27s-68.69,122.27-85.77,122.73c-17.08.46-85.77-80.9-85.77-122.73s38.43-85.27,85.77-85.27Z"/>
  <path class="cls-1" d="M107.78,422.63c-23.67-41-5.26-96,30.96-116.91,36.22-20.91,140.23-1.65,149.17,12.91,8.94,14.57-27.18,114.73-63.4,135.64-36.22,20.91-93.06,9.35-116.73-31.64Z"/>
  <path class="cls-1" d="M487.03,422.82c-23.67,41-80.51,52.55-116.73,31.64-36.22-20.91-71.54-120.62-63.4-135.64,8.14-15.02,112.95-33.83,149.17-12.91,36.22,20.91,54.63,75.92,30.96,116.91Z"/>
  <path class="cls-1" d="M475.82,0H120.47C55.1,0,2.02,53.08,2.02,118.45v355.35c0,65.37,53.08,118.45,118.45,118.45h355.35c65.37,0,118.45-53.08,118.45-118.45V118.45c0-65.37-53.08-118.45-118.45-118.45ZM559.27,452.8c0,57.65-46.8,104.45-104.45,104.45H141.47c-57.65,0-104.45-46.8-104.45-104.45V139.45c0-57.65,46.8-104.45,104.45-104.45h313.35c57.65,0,104.45,46.8,104.45,104.45v313.35Z"/>
</svg>