<?xml version="1.0" encoding="UTF-8"?>
<svg id="Capa_1" data-name="Capa 1" xmlns="http://www.w3.org/2000/svg" viewBox="0 0 282 197">
  <path d="M79.97,107.99c-.11-.11-.04-.33.15-.33h.76c6.21-.62,11.41-4.63,11.41-11.73,0-8.18-6.61-11.95-14.21-11.95h-35.51c-.47,0-.87.4-.87.87v36.27c0,.47.4.87.87.87h11.34c.47,0,.87-.4.87-.87v-11.58c0-.47.4-.87.87-.87h7.38c1.02,0,2,.43,2.69,1.19l10.5,11.8c.22.11.44.18.65.29h14.97c.76,0,1.16-.9.62-1.45l-12.5-12.52ZM75.24,100.21h-19.62c-.47,0-.87-.4-.87-.87v-5.5c0-.47.4-.87.87-.87h19.33c2.76,0,4.58,1.34,4.58,3.51,0,2.46-1.67,3.73-4.29,3.73Z"/>
  <path d="M223.3,84.03h-11.34c-.47,0-.87.4-.87.87v24.07c0,.47.4.87.87.87h11.34c.47,0,.87-.4.87-.87v-24.07c-.04-.47-.4-.87-.87-.87Z"/>
  <path d="M223.3,114.94h-11.34c-.47,0-.87.4-.87.87v5.36c0,.47.4.87.87.87h11.34c.47,0,.87-.4.87-.87v-5.36c-.04-.47-.4-.87-.87-.87Z"/>
  <path d="M269.96,120.88l-14.57-19.22c-.33-.43-.29-1.01.07-1.41l13.77-15.06c.4-.43.07-1.12-.51-1.12h-11.92c-.33,0-.62.14-.83.36l-13.3,14.55s-.11.07-.18.07h-.47c-.11,0-.22-.11-.22-.22v-14.01c0-.43-.36-.8-.8-.8h-10.9c-.44,0-.8.36-.8.8v36.34c0,.4.33.72.73.72h11.01c.4,0,.73-.33.73-.72v-6.77c0-.29.11-.54.29-.76l4.83-5.14s.04-.07.15-.07h.65c.07,0,.15.07.15.07l9.74,12.96c.22.29.55.43.91.43h10.94c.58,0,.87-.62.54-1.01Z"/>
  <path d="M109.91,92.72h11.08c.47,0,.87-.4.87-.87v-6.95c0-.47-.4-.87-.87-.87h-22.93c-.47,0-.87.4-.87.87v36.27c0,.47.4.87.87.87h22.93c.47,0,.87-.4.87-.87v-6.95c0-.47-.4-.87-.87-.87h-11.16c-.47,0-.87-.4-.87-.87v-4.52c0-.51.44-.94.94-.94h11.08c.47,0,.87-.4.87-.87v-6.81c0-.47-.4-.87-.87-.87h-11.08c-.51,0-.94-.43-.94-.94v-3.91c0-.51.44-.9.94-.9Z"/>
  <path d="M139.72,92.72h11.08c.47,0,.87-.4.87-.87v-6.95c0-.47-.4-.87-.87-.87h-22.93c-.47,0-.87.4-.87.87v36.27c0,.47.4.87.87.87h22.93c.47,0,.87-.4.87-.87v-6.95c0-.47-.4-.87-.87-.87h-11.16c-.47,0-.87-.4-.87-.87v-4.52c0-.51.44-.94.94-.94h11.08c.47,0,.87-.4.87-.87v-6.81c0-.47-.4-.87-.87-.87h-11.08c-.51,0-.94-.43-.94-.94v-3.91c0-.51.44-.9.94-.9Z"/>
  <path d="M24.62,92.72h11.08c.47,0,.87-.4.87-.87v-6.95c0-.47-.4-.87-.87-.87H12.77c-.47,0-.87.4-.87.87v36.27c0,.47.4.87.87.87h10.03c.47,0,.87-.4.87-.87v-13.18c0-.51.44-.94.94-.94h11.08c.47,0,.87-.4.87-.87v-6.81c0-.47-.4-.87-.87-.87h-11.08c-.51,0-.94-.43-.94-.94v-3.91c0-.54.4-.94.94-.94Z"/>
  <path d="M192.01,84.03h-34.34c-.47,0-.87.4-.87.87v36.27c0,.47.4.87.87.87h11.34c.47,0,.87-.4.87-.87v-11.98c0-.25.18-.43.44-.43h21.73c8.72,0,15.34-4.52,15.34-12.52s-6.61-12.2-15.37-12.2ZM190.38,100.21h-19.62c-.47,0-.87-.4-.87-.87v-5.5c0-.47.4-.87.87-.87h19.33c2.76,0,4.58,1.34,4.58,3.51,0,2.46-1.71,3.73-4.29,3.73Z"/>
</svg>