<?xml version="1.0" encoding="UTF-8" standalone="no"?>
<!DOCTYPE svg PUBLIC "-//W3C//DTD SVG 1.1//EN" "http://www.w3.org/Graphics/SVG/1.1/DTD/svg11.dtd">
<svg width="465.00" height="113.00" viewBox="0.00 0.00 465.00 113.00" xmlns="http://www.w3.org/2000/svg" xmlns:xlink="http://www.w3.org/1999/xlink">
<g stroke-linecap="round" transform="translate(-5.00, -160.00)" id="Capa_1">
<path d="M76.84,234.89 C76.84,234.89 76.47,235.35 76.47,235.35 C78.02,224.55 79.50,215.91 81.78,208.92 C82.14,207.83 82.51,206.73 82.88,205.64 C82.88,205.64 90.72,231.51 90.72,231.51 C90.04,229.80 92.02,218.56 94.12,212.06 C94.78,210.03 98.24,200.71 98.69,200.18 C98.95,199.90 99.53,199.54 100.43,199.10" fill="none" stroke="rgb(255, 255, 255)" stroke-width="7.24" stroke-opacity="1.00" stroke-linejoin="round"/>
<path d="M105.87,217.73 C105.72,217.56 105.55,217.47 105.37,217.44 C104.48,217.36 103.05,217.95 101.95,218.99 C100.75,220.17 98.78,222.77 98.28,224.06 C97.66,225.77 97.75,228.97 98.47,230.43 C99.24,231.85 101.65,233.83 103.27,234.44 C104.66,234.91 107.37,234.74 108.75,234.17 C111.01,233.15 113.81,229.36 114.08,227.20 C114.18,226.08 113.85,223.83 113.40,222.94 C112.54,221.30 108.73,219.72 108.02,219.83 C107.64,219.90 105.06,220.87 104.13,221.23" fill="none" stroke="rgb(255, 255, 255)" stroke-width="7.24" stroke-opacity="1.00" stroke-linejoin="round"/>
<path d="M127.40,233.14 C127.42,233.12 127.43,233.24 127.44,233.48 C127.47,235.35 127.00,237.70 126.10,239.22 C125.29,240.56 121.41,244.90 119.51,246.93" fill="none" stroke="rgb(255, 255, 255)" stroke-width="7.24" stroke-opacity="1.00" stroke-linejoin="round"/>
<path d="M146.31,222.72 C146.31,222.72 145.52,222.61 145.52,222.61 C145.60,222.64 147.10,223.35 147.77,223.50 C149.58,223.92 154.23,224.06 155.16,224.09 C155.25,219.60 154.20,216.19 152.88,215.38 C151.52,214.62 148.73,215.60 147.35,217.34 C145.83,219.36 144.27,226.05 144.64,229.00 C144.88,230.54 146.27,233.42 147.24,234.15 C148.31,234.90 151.35,235.07 152.91,234.62 C153.55,234.41 156.44,232.95 157.63,232.34 C158.54,231.85 159.45,231.36 160.36,230.87" fill="none" stroke="rgb(255, 255, 255)" stroke-width="7.24" stroke-opacity="1.00" stroke-linejoin="round"/>
<path d="M168.62,218.57 C169.50,217.59 169.41,213.53 168.38,212.72 C167.53,212.13 164.86,213.16 164.16,214.38 C163.53,215.59 164.28,218.32 165.83,221.07 C167.12,223.36 169.69,229.42 169.34,231.74 C168.97,233.89 165.40,234.30 164.72,234.17 C164.72,234.17 162.67,231.02 162.67,231.02" fill="none" stroke="rgb(255, 255, 255)" stroke-width="7.24" stroke-opacity="1.00" stroke-linejoin="round"/>
<path d="M167.56,202.76 C168.32,202.98 168.85,203.11 169.16,203.15 C170.74,203.30 186.77,200.83 187.08,200.56 C187.33,200.33 187.68,199.69 188.14,198.64" fill="none" stroke="rgb(255, 255, 255)" stroke-width="7.24" stroke-opacity="1.00" stroke-linejoin="round"/>
<path d="M179.39,191.06 C177.45,211.84 176.66,227.33 177.10,230.75 C177.37,232.51 178.05,234.30 178.84,234.99 C179.40,235.44 181.17,235.43 181.94,234.97 C182.27,234.76 183.16,234.14 184.59,233.12" fill="none" stroke="rgb(255, 255, 255)" stroke-width="7.24" stroke-opacity="1.00" stroke-linejoin="round"/>
<path d="M188.86,213.21 C188.09,214.48 186.94,218.62 186.57,221.68 C186.05,226.55 185.92,230.86 186.49,231.97 C187.16,233.13 190.42,233.97 191.93,233.27 C192.68,232.89 193.86,231.51 194.19,230.60 C194.86,228.55 194.49,221.09 193.18,218.11 C192.43,216.48 190.70,214.58 189.52,214.05 C188.73,213.72 187.03,214.10 184.46,214.89" fill="none" stroke="rgb(255, 255, 255)" stroke-width="7.24" stroke-opacity="1.00" stroke-linejoin="round"/>
<path d="M209.77,212.17 C209.77,212.17 213.31,228.91 213.31,228.91 C212.96,225.95 213.45,221.69 214.06,219.29 C214.74,216.71 216.65,212.88 218.03,212.01 C219.82,214.35 220.53,215.86 220.64,218.14 C221.14,227.67 222.19,229.45 222.79,230.24 C224.11,230.13 226.31,226.39 227.64,221.83 C227.51,223.31 227.60,226.16 228.07,227.56 C228.73,229.48 230.47,231.42 231.41,231.31 C232.59,231.08 234.25,229.90 235.16,228.60 C236.54,226.55 237.72,220.36 237.54,218.11 C237.43,217.03 236.56,213.84 236.01,212.83 C235.33,211.60 233.16,210.81 232.62,210.64 C232.29,210.56 232.04,210.60 231.86,210.77 C231.60,211.01 230.71,211.95 229.20,213.57" fill="none" stroke="rgb(255, 255, 255)" stroke-width="7.24" stroke-opacity="1.00" stroke-linejoin="round"/>
<path d="M255.26,218.19 C256.00,218.38 256.49,218.50 256.74,218.55 C261.98,219.42 267.59,216.46 269.66,215.01 C269.66,215.01 269.20,213.46 269.20,213.46 C267.26,212.42 265.10,211.75 263.37,211.87 C261.90,212.01 259.87,213.38 259.19,214.74 C257.95,217.42 257.88,222.38 258.63,224.71 C259.09,226.05 260.09,227.53 261.13,228.36 C262.23,229.19 264.58,229.81 265.93,229.57 C267.31,229.30 271.42,226.91 272.73,226.16" fill="none" stroke="rgb(255, 255, 255)" stroke-width="7.24" stroke-opacity="1.00" stroke-linejoin="round"/>
<path d="M286.17,209.38 C285.55,208.39 283.91,207.71 282.16,207.98 C281.59,208.07 278.47,209.62 278.21,209.81 C277.46,210.43 277.19,211.96 277.67,212.94 C278.29,214.13 283.82,219.20 284.51,220.22 C285.09,221.10 285.47,222.66 285.29,223.42 C285.10,224.11 284.10,225.47 283.15,226.40 C282.20,227.27 279.48,228.44 277.64,228.76 C276.85,228.90 274.42,228.70 273.37,228.63" fill="none" stroke="rgb(255, 255, 255)" stroke-width="7.24" stroke-opacity="1.00" stroke-linejoin="round"/>
<path d="M316.08,183.90 C316.08,183.90 315.46,184.12 315.46,184.12 C315.42,184.23 317.94,184.19 319.75,184.00 C321.60,183.80 324.24,182.96 324.99,182.64 C323.66,182.69 322.06,183.41 321.20,184.56 C320.28,185.81 320.23,203.86 320.23,213.04 C320.31,226.94 321.02,230.57 321.02,230.51 C321.02,230.51 319.51,230.14 319.51,230.14" fill="none" stroke="rgb(255, 255, 255)" stroke-width="7.24" stroke-opacity="1.00" stroke-linejoin="round"/>
<path d="M312.80,231.20 C312.80,231.20 312.27,231.28 312.27,231.28 C315.05,231.24 316.59,231.17 317.95,231.00 C319.31,230.82 320.36,230.48 321.91,229.78 C321.91,229.78 322.08,228.91 322.08,228.91" fill="none" stroke="rgb(255, 255, 255)" stroke-width="7.24" stroke-opacity="1.00" stroke-linejoin="round"/>
<path d="M331.29,231.20 C331.32,231.25 331.71,229.58 332.16,227.37 C334.25,216.56 337.49,183.08 338.04,180.51 C342.00,195.14 345.55,213.03 346.46,224.69 C346.46,224.69 344.47,222.93 344.47,222.93" fill="none" stroke="rgb(255, 255, 255)" stroke-width="7.24" stroke-opacity="1.00" stroke-linejoin="round"/>
<path d="M328.65,209.29 C328.65,209.29 327.29,209.50 327.29,209.50 C331.31,209.64 336.26,209.57 339.76,209.27 C342.41,209.02 352.40,207.47 353.18,207.37" fill="none" stroke="rgb(255, 255, 255)" stroke-width="7.24" stroke-opacity="1.00" stroke-linejoin="round"/>
<path d="M358.74,227.14 C358.74,227.14 359.10,227.34 359.10,227.34 C359.10,227.34 358.29,229.04 358.29,229.04" fill="none" stroke="rgb(255, 255, 255)" stroke-width="7.24" stroke-opacity="1.00" stroke-linejoin="round"/>
<path d="M16.43,185.62 C14.97,183.22 13.39,180.46 12.64,178.13 C11.06,172.60 9.30,166.55 9.00,165.62 C10.20,166.84 24.56,166.75 24.97,166.87 C24.97,166.87 24.39,168.09 24.39,168.09" fill="none" stroke="rgb(255, 255, 255)" stroke-width="7.24" stroke-opacity="1.00" stroke-linejoin="round"/>
<path d="M11.00,168.18 C11.00,168.18 10.09,166.26 10.09,166.26 C11.53,166.40 14.74,169.37 17.20,172.00 C22.98,178.18 37.48,193.57 40.79,196.83 C43.84,199.82 53.43,207.82 54.31,208.66 C54.31,208.66 52.99,209.63 52.99,209.63" fill="none" stroke="rgb(255, 255, 255)" stroke-width="7.24" stroke-opacity="1.00" stroke-linejoin="round"/>
</g>
</svg>
