<svg viewBox="0 0 282 197" xmlns="http://www.w3.org/2000/svg"><path d="m117 156.5c-1.45 5.07-20.76 6.95-25.49 6.49-40.51-3.92-36.26-67.06 9.87-62.86 10.02.91 16.85 3.37 14.61 14.87-9.11-2.72-14.59-5.4-24.43-2.93-24.26 6.08-17.33 44.3 8.67 40.67 10.21-1.42 6.01-7.79 6.77-15.74l-13.05-.46c-.61-.37-.43-9.54.05-9.54h23c-1.39 7.58 1.87 22.96 0 29.5z"/><path d="m27 33v21.5c0 .11 1.39 1.5 1.5 1.5h23c.11 0 1.5-1.39 1.5-1.5v-21.5h12v60h-12v-24.5c0-.11-1.39-1.5-1.5-1.5h-23c-.11 0-1.5 1.39-1.5 1.5v24.5h-12v-60z"/><path d="m203 162v-32.5c0-2.02-4.36-5.19-6.59-5.48-18.58-2.36-8.05 31.59-11.85 37.04-1.38 1.98-9.84.49-12.56.94v-48c6.46.69 13.76-3.14 13.5 6 10.5-11.92 28.71-8.27 30.51 8.5.43 3.99.67 29.37-.15 31.87-1.01 3.1-10.03 1.1-12.86 1.64z"/><path d="m127.84 46.16c1.91 1.19 8.63 22.64 11.66 25.82 1.56 0 9.33-24.09 11.46-25.52s9.17.06 12.04-.45c-7.37 20.13-17.03 39.93-25.99 59.5l-12.01.49c-1.63-1.59 8.95-16.34 6.97-20.4l-16.99-38.1c-.23-2.06.11-1.3 1.49-1.5 1.52-.22 10.73-.23 11.36.17z"/><path d="m210.97 46.47c5.41-6.98 1.37-9.55-1.97-16.47-.97-2-.9-5.07-3-7-3.31-3.04-7.81 2.85-10 5-7.95 7.79-15.57 18.15-22 27-1.6 2.2-5.15 3.36-3.99 7.99.74.73 9.81-1.41 11.55-1.94 6.91-2.12 25.46-9.47 29.41-14.58z"/><path d="m250 56c-1.32-.41-5.68-1.94-6-2-1.89-.37-11.78-1.25-13.52-1.08-3.54.35-7.72 6.52-8.21 9.81-.76 5.09-.2 11.04-.27 16.27-.1 7.65.07 15.35 0 23-.28 1.54 3.27 1.12 4.31.81 3.47-1.04 15.99-20.53 18.69-24.81 2.14-3.37 4.56-4.57 5-9 4.65-3.25 6.56-10.97 0-13z"/><path d="m218 76c-.42-10.92-.37-14.17-9.69-21.02-2.92-.53-3.74 1.51-5.31 2.02-7.72 2.49-19.14 5-26.2 8.1-.27.12-4.71 3.06-4.9 3.29-4.78 5.84 5.62 11.76 9.09 14.61 3.58 2.94 7.46 5.36 11 8 2.68 2.01 5.27 4.01 8 6 .57.42 1.26 2.1 2.49 2.98 19.11 13.5 15.58-2.63 15.51-16.98-.01-2.33.09-4.68 0-7z"/><path d="m242 53c.87.15 2.03-.04 3 0 1.99.08 4.01-.05 6-.01l-2-3.99c-3.16-2.41-7-4.72-10-7-5.52-4.21-9.99-8.55-16-12-.72-.41-1.41-.67-2-1-.28-.37-.73-.64-1-1-1.36-1.82-8.99-8.75-10-4.48-.29 1.2 6.28 14.65 7.57 16.41 4.42 6.08 12.04 9.58 19.44 10.06 1.54 1.08 2.19 2.51 5 3z"/><path d="m167.86 134.87c3.28-5.11-6.09-16.77-10.96-19.27-33.17-16.99-51.47 41.67-14.14 47.14 3.44.5 18.45-.3 20.1-2.88.88-1.37-.32-7.65.14-9.85-8.01 3.26-15 5.03-22.9.39-.78-.46-5.29-3.06-4.09-4.38 3.83-2.3 30.95-9.73 31.86-11.15zm-33.85 2.13c-3.19-13.92 18.26-20.62 21.99-7.01z"/><path d="m100.27 45.23c-23.39-4.81-38.9 18.12-27.07 38.07 5.79 9.76 15.53 11.68 26.33 10.74 2.04-.18 10.53-1.95 11.29-3.2.94-1.53-.3-7.54.17-9.83-4.9 1.73-9.79 4.19-15.21 3.79-2.58-.19-14.35-4.07-11.79-7.79.92-1.33 29.14-8.91 30.53-10.97 4.41-6.55-7.56-19.44-14.26-20.81zm1.74 16.29c-1.41 1.3-20.1 7.42-21.01 6.48-1.66-10.67 11.46-18.41 19.94-11.45 1.74 1.42 3.24 2.95 1.07 4.97z"/></svg>