<svg viewBox="0 0 800 800" xmlns="http://www.w3.org/2000/svg"><path d="m615.4 768.3h-430.8c-45.1 0-72.4 0-96.6-15.9-19.8-13-35.5-32.9-45.2-57.4-10.4-26.4-10.4-55.4-10.4-113.1v-373.9c0-51.2.6-78.3 10.4-103.1 9.7-24.5 25.3-44.4 45.2-57.4 24.2-15.9 51.5-15.9 96.6-15.9h430.9c45.1 0 72.4 0 96.6 15.9 19.8 13 35.5 32.9 45.2 57.4 9.8 24.8 10.4 52 10.4 103.2v373.7c0 57.8 0 86.8-10.4 113.1-9.7 24.5-25.3 44.4-45.2 57.4-24.2 15.9-51.5 15.9-96.6 15.9zm-481.1-68.4c10.7 1.8 27.7 1.8 50.2 1.8h430.9c22.5 0 39.6 0 50.2-1.8l-161.5-249.7-16.5 14.2c-26.5 22.7-41 35.2-60.5 41.2-17.7 5.5-36.5 5.5-54.3 0-19.5-6-34-18.5-60.5-41.2l-16.6-14.2-161.5 249.7zm420.9-293.6 145.3 224.7c.4-13.1.4-29.3.4-49.2v-300.7zm-456.2-125.2v300.7c0 19.9 0 36 .4 49.2l145.3-224.7zm211.6 93.9 45.2 38.8c18.4 15.8 30.5 26.2 36.7 28.1 5 1.5 10 1.5 15 0 6.3-1.9 18.4-12.3 36.7-28.1l45.2-38.8c.2-.2.4-.3.6-.5l210.9-181.2c-.2-32.4-1-52-5.7-63.8-4.6-11.5-11.6-20.9-19.8-26.2-7.6-5-28.4-5-60-5h-430.8c-31.6 0-52.4 0-60 5-8.2 5.4-15.2 14.7-19.8 26.2-4.7 11.8-5.6 31.3-5.7 63.8l211 181.2c.2.2.4.3.6.5z" fill="#fff"/></svg>