<svg viewBox="0 0 800 800" xmlns="http://www.w3.org/2000/svg"><g fill="#fff"><path d="m592.7 168.2c-24.4 0-42.8 18.3-42.8 42.8s18.3 42.8 42.8 42.8 42.8-18.3 42.8-42.8-18.3-42.8-42.8-42.8z"/><path d="m400.3 223.2c-100.8 0-180.2 82.4-180.2 180.2s82.4 180.2 180.2 180.2 180.2-82.4 180.2-180.2-79.4-180.2-180.2-180.2zm0 296.2c-64.1 0-116-51.9-116-116s51.9-116 116-116 116 51.9 116 116-51.9 116-116 116z"/><path d="m546.8 33.8h-290.1c-125.2 0-222.9 97.7-222.9 219.9v290.1c0 122.1 97.7 219.9 219.9 219.9h290.1c122.1 0 219.9-97.7 219.9-219.9v-290.1c3.1-122.1-94.7-219.9-216.8-219.9zm149.7 513.1c0 82.4-67.2 152.7-152.7 152.7h-290.1c-82.4 0-152.7-67.2-152.7-152.7v-290.1c0-82.4 67.2-152.7 152.7-152.7h290.1c82.4 0 152.7 67.2 152.7 152.7z"/></g></svg>