<svg viewBox="0 0 800 800" xmlns="http://www.w3.org/2000/svg"><g fill="#fff"><path d="m216.7 266.7c27.6 0 50-22.4 50-50s-22.4-50-50-50-50 22.4-50 50 22.4 50 50 50z"/><path d="m166.7 333.3c0-18.4 14.9-33.3 33.3-33.3h33.3c18.4 0 33.3 14.9 33.3 33.3v266.7c0 18.4-14.9 33.3-33.3 33.3h-33.3c-18.4 0-33.3-14.9-33.3-33.3z"/><path d="m366.7 633.3h33.3c18.4 0 33.3-14.9 33.3-33.3v-150c0-50 100-83.3 100-16.7v166.7c0 18.4 14.9 33.3 33.3 33.3h33.3c18.4 0 33.3-14.9 33.3-33.3v-200c0-66.7-50-100-116.7-100s-83.3 50-83.3 50v-16.7c0-18.4-14.9-33.3-33.3-33.3h-33.3c-18.4 0-33.3 14.9-33.3 33.3v266.7c0 18.4 14.9 33.3 33.3 33.3z"/><path d="m666.7 33.3c55.2 0 100 44.8 100 100v533.3c0 55.2-44.8 100-100 100h-533.4c-55.2 0-100-44.8-100-100v-533.3c0-55.2 44.8-100 100-100h533.3zm0 66.7c18.4 0 33.3 14.9 33.3 33.3v533.3c0 18.4-14.9 33.3-33.3 33.3h-533.4c-18.4 0-33.3-14.9-33.3-33.3v-533.3c0-18.4 14.9-33.3 33.3-33.3h533.3z" fill-rule="evenodd"/></g></svg>