<?xml version="1.0" encoding="UTF-8"?>
<svg id="Capa_1" xmlns="http://www.w3.org/2000/svg" version="1.1" viewBox="0 0 800 800">
  <!-- Generator: Adobe Illustrator 29.8.2, SVG Export Plug-In . SVG Version: 2.1.1 Build 3)  -->
  <defs>
    <style>
      .st0 {
        fill-rule: evenodd;
      }

      .st0, .st1 {
        fill: #fff;
      }
    </style>
  </defs>
  <path class="st1" d="M216.7,266.7c27.6,0,50-22.4,50-50s-22.4-50-50-50-50,22.4-50,50,22.4,50,50,50Z"/>
  <path class="st1" d="M166.7,333.3c0-18.4,14.9-33.3,33.3-33.3h33.3c18.4,0,33.3,14.9,33.3,33.3v266.7c0,18.4-14.9,33.3-33.3,33.3h-33.3c-18.4,0-33.3-14.9-33.3-33.3v-266.7Z"/>
  <path class="st1" d="M366.7,633.3h33.3c18.4,0,33.3-14.9,33.3-33.3v-150c0-50,100-83.3,100-16.7v166.7c0,18.4,14.9,33.3,33.3,33.3h33.3c18.4,0,33.3-14.9,33.3-33.3v-200c0-66.7-50-100-116.7-100s-83.3,50-83.3,50v-16.7c0-18.4-14.9-33.3-33.3-33.3h-33.3c-18.4,0-33.3,14.9-33.3,33.3v266.7c0,18.4,14.9,33.3,33.3,33.3Z"/>
  <path class="st0" d="M666.7,33.3c55.2,0,100,44.8,100,100v533.3c0,55.2-44.8,100-100,100H133.3c-55.2,0-100-44.8-100-100V133.3c0-55.2,44.8-100,100-100h533.3ZM666.7,100c18.4,0,33.3,14.9,33.3,33.3v533.3c0,18.4-14.9,33.3-33.3,33.3H133.3c-18.4,0-33.3-14.9-33.3-33.3V133.3c0-18.4,14.9-33.3,33.3-33.3h533.3Z"/>
</svg>