<?xml version="1.0" encoding="UTF-8"?>
<svg id="Camada_1" xmlns="http://www.w3.org/2000/svg" version="1.1" viewBox="0 0 800 800">
  <!-- Generator: Adobe Illustrator 29.8.2, SVG Export Plug-In . SVG Version: 2.1.1 Build 3)  -->
  <defs>
    <style>
      .st0 {
        fill: #fff;
      }
    </style>
  </defs>
  <path class="st0" d="M592.7,168.2c-24.4,0-42.8,18.3-42.8,42.8s18.3,42.8,42.8,42.8,42.8-18.3,42.8-42.8-18.3-42.8-42.8-42.8Z"/>
  <path class="st0" d="M400.3,223.2c-100.8,0-180.2,82.4-180.2,180.2s82.4,180.2,180.2,180.2,180.2-82.4,180.2-180.2-79.4-180.2-180.2-180.2h0ZM400.3,519.4c-64.1,0-116-51.9-116-116s51.9-116,116-116,116,51.9,116,116-51.9,116-116,116Z"/>
  <path class="st0" d="M546.8,33.8h-290.1c-125.2,0-222.9,97.7-222.9,219.9v290.1c0,122.1,97.7,219.9,219.9,219.9h290.1c122.1,0,219.9-97.7,219.9-219.9V253.7c3.1-122.1-94.7-219.9-216.8-219.9h0ZM696.5,546.9c0,82.4-67.2,152.7-152.7,152.7H253.7c-82.4,0-152.7-67.2-152.7-152.7v-290.1c0-82.4,67.2-152.7,152.7-152.7h290.1c82.4,0,152.7,67.2,152.7,152.7v290.1Z"/>
</svg>