<?xml version="1.0" encoding="UTF-8"?>
<svg id="Capa_1" data-name="Capa 1" xmlns="http://www.w3.org/2000/svg" viewBox="0 0 1024 1024">
  <g id="waves">
    <path d="M932.29,865.35c-28.65,0-47.92-16.19-64.92-30.47-15.83-13.3-26.24-21.45-40.15-21.45s-24.32,8.15-40.15,21.45c-17,14.28-36.28,30.47-64.92,30.47s-47.92-16.19-64.92-30.47c-15.83-13.3-26.24-21.45-40.15-21.45s-24.32,8.15-40.15,21.45c-17,14.28-36.28,30.47-64.92,30.47s-47.92-16.19-64.92-30.47c-15.83-13.3-26.24-21.45-40.15-21.45s-24.32,8.15-40.15,21.45c-17,14.28-36.28,30.47-64.92,30.47-.77,0-1.53-.05-2.29-.14-43.16-5.18-68.83-29.39-85.82-45.41-5.15-4.86-12.73-12-16.33-13.54-17.71,4.08-36.06,18.51-52.34,31.32-18.94,14.9-35.3,27.77-53.36,27.77-10.64,0-19.26-8.62-19.26-19.26s8.6-19.24,19.22-19.26c5.24-.37,19.89-11.9,29.59-19.52,19.66-15.47,44.13-34.71,72.27-39.54,1.07-.18,2.16-.28,3.25-.28,17.63,0,30.14,11.8,43.39,24.29,15.46,14.58,32.95,31.07,62.77,35.03,13.38-.41,23.65-8.48,39.07-21.43,17-14.28,36.28-30.47,64.92-30.47s47.92,16.19,64.92,30.47c15.83,13.3,26.24,21.45,40.15,21.45s24.32-8.15,40.15-21.45c17-14.28,36.28-30.47,64.92-30.47s47.92,16.19,64.92,30.47c15.83,13.3,26.24,21.45,40.15,21.45s24.32-8.15,40.15-21.45c17-14.28,36.28-30.47,64.92-30.47s47.92,16.19,64.92,30.47c15.83,13.3,26.24,21.45,40.15,21.45,10.64,0,19.26,8.62,19.26,19.26s-8.62,19.26-19.26,19.26Z"/>
  </g>
  <g id="hull">
    <path d="M671.72,841.62c-7.26,0-14.22-4.13-17.48-11.15-4.48-9.65-.29-21.1,9.36-25.58,61.41-28.52,112.53-57.73,154.71-88.49l-639.57,41.19,14.59,27.9c4.93,9.43,1.28,21.06-8.14,25.99-9.43,4.93-21.06,1.28-25.99-8.14l-28.31-54.14c-3.02-5.77-2.91-12.68.28-18.36s9.04-9.36,15.55-9.78l729.33-46.97c8.17-.52,15.77,4.17,18.97,11.7s1.28,16.26-4.77,21.77c-52.25,47.52-121.08,90.79-210.42,132.28-2.63,1.22-5.38,1.8-8.1,1.8Z"/>
  </g>
  <g id="front_sail" data-name="front sail">
    <path d="M795.08,673.5c-2.37,0-4.76-.44-7.04-1.34-3.18-1.25-6.28-2.5-9.33-3.73-26.69-10.78-45.98-18.56-80.97-9.62-10.17,2.6-20.55-3.43-23.34-13.55-23.24-84.53-54.3-159.61-92.32-223.15-42.91-71.7-94.96-129.01-154.71-170.34-7.81-5.4-10.52-15.69-6.38-24.23,4.14-8.55,13.88-12.8,22.97-10.02,65.07,19.9,142.19,76.46,211.58,155.18,73.52,83.41,129.63,181.43,157.99,276.02,2.12,7.06.02,14.71-5.41,19.7-3.62,3.33-8.3,5.09-13.04,5.09ZM726.36,616.33c13.9,0,26.02,2.26,37.44,5.64-29.26-77.39-77.06-155.62-137.17-223.81-14.66-16.63-29.78-32.28-45.06-46.73,11.72,16.13,22.91,33.11,33.56,50.9,37.18,62.14,67.94,134.55,91.52,215.45,6.98-1,13.52-1.45,19.71-1.45Z"/>
  </g>
  <g id="rear_sail" data-name="rear sail">
    <path d="M204.58,702.3c-5.34,0-10.61-2.22-14.38-6.44-6.22-6.97-6.54-17.39-.77-24.73,63.41-80.59,91.18-173.1,82.54-274.94-8.35-98.45-48.65-183.8-80.98-238.06-4.27-7.16-3.44-16.26,2.05-22.54,5.49-6.28,14.4-8.3,22.07-5.03,90.17,38.57,184.87,107.96,259.81,190.38,91.73,100.88,150.07,216.24,168.72,333.61,1.09,6.85-1.59,13.76-7.02,18.09-5.43,4.32-12.76,5.39-19.2,2.8-146.01-58.88-281.51-50.81-402.73,23.99-3.13,1.93-6.63,2.87-10.1,2.87ZM252.96,192.08c26.21,54.29,50.84,123.64,57.39,200.86,7.32,86.29-9.15,166.48-49.02,239.26,38.41-16.05,78.13-26.51,118.73-31.22,70.15-8.14,143.73.81,219.15,26.59-22.45-98.53-74.82-194.95-152.79-280.7-56.68-62.33-125.01-116.75-193.46-154.78Z"/>
  </g>
</svg>