<svg viewBox="0 0 282 197" xmlns="http://www.w3.org/2000/svg"><path d="m242.44 66.84c8.43 0 16.87 1.91 21.19 5.72h-.02c4.32 3.81 6.49 9.22 6.49 16.21v19.77c0 6.9-2.18 12.23-6.52 15.98-4.35 3.76-12.79 5.64-21.23 5.64s-17.38-.06-22.22-5.56c-5.14-5.84-3.24-10.28-1.17-15.15 1.23-2.89 2.53-5.93 2.44-9.49-.08-3.23-1.52-5.52-2.96-7.81-2.07-3.29-4.15-6.59-2.19-12.71 3.7-11.55 16.25-12.6 26.18-12.6m11.54 50.56c1.94-1.91 2.91-5.17 2.91-9.82v-17.84c0-4.75-.97-8.1-2.91-10.06-1.95-1.97-7.32-2.93-11.99-2.93s-10.05.98-11.99 2.93c-1.94 1.96-2.91 5.32-2.91 10.06v17.84c0 4.64.97 7.92 2.91 9.82 1.95 1.91 7.32 2.86 11.99 2.86s10.05-.95 11.99-2.86m-215.92 12.41c-5.04 0-9.83-.78-14.37-2.34s-8.47-3.97-11.77-7.24l4.51-8.82c3.26 2.76 6.77 4.83 10.51 6.21s8.01 2.06 12.8 2.06c3.82 0 6.73-.69 8.71-2.06 1.98-1.38 2.98-3.37 2.98-5.98 0-2.34-1.16-4.05-3.48-5.1s-7.22-2.22-14.71-3.49c-7.19-1.13-12.26-2.95-15.22-5.48s-4.44-6.32-4.44-11.39c0-5.47 2.04-10 6.12-13.6 4.08-3.59 10.04-5.4 17.89-5.4 4.74 0 9.26.78 13.59 2.34 4.31 1.56 7.71 3.71 10.21 6.48l-3.98 8.43c-3.06-2.32-6.26-4.09-9.6-5.31-3.34-1.21-6.82-1.82-10.44-1.82-3.37 0-6.01.6-7.95 1.81-1.94 1.2-2.91 3.06-2.91 5.58 0 2.36 1.19 4.05 3.56 5.08s7.38 2.22 15.02 3.55c7.09 1.23 12.08 3.14 14.99 5.75 2.91 2.6 4.36 6.43 4.36 11.49 0 6.08-2.34 10.8-7 14.18-4.67 3.37-11.13 5.06-19.39 5.06v.02zm66.03.35c-9.11 0-17.74-1.88-21.76-5.65s-6.03-9.59-6.03-17.5v-39.13h13.06v38.05c0 4.91.87 8.41 2.61 10.46 1.75 2.06 7.16 3.08 12.13 3.08s10.38-1.03 12.13-3.08c1.11-1.3 1.39-3.23 1.74-5.69.21-1.42.44-3.02.87-4.77s1.97-3.99 3.55-6.29c1.98-2.9 4.03-5.88 4.01-8.06-.02-2.19-2.06-5.03-4.04-7.77-1.57-2.18-3.09-4.29-3.52-5.97-.62-2.4 0-9.95 0-9.95h13.06s.14 7.46 0 9.95c-.08 1.5-.39 3.65-.7 5.88-.39 2.78-.8 5.66-.81 7.54-.02 2.25.41 5.77.82 9.11.31 2.53.61 4.96.69 6.66.38 7.89-2.01 13.73-6.03 17.5-4.03 3.77-12.65 5.65-21.77 5.65h-.02zm78.85-1.05s-3.1-3.54-5.61-11.77c-.91-2.99-1.21-5.52-1.49-7.85-.36-3.02-.68-5.7-2.24-8.64-1.27-2.39-3.22-3.74-5.43-5.26-1.82-1.26-3.83-2.64-5.78-4.83-3.86-4.32-5.53-9.33-5.53-9.33v47.68h-11.3v-61.22h17.95s5.51 8.66 7.96 13.95c1.33 2.87 1.78 5.45 2.24 8.05.49 2.82.99 5.66 2.62 8.93 2.74 5.5 4.47 6.88 6.5 8.5 1.03.83 2.15 1.72 3.52 3.25 2.29 2.56 3.26 5.15 3.26 5.15v-47.83h11.23v61.22h-17.88" fill-rule="evenodd"/></svg>