<svg width="80" height="102" viewBox="0 0 80 102" fill="none" xmlns="http://www.w3.org/2000/svg">
<rect width="80" height="74" rx="14" fill="#F17526"/>
<path d="M12.8722 99L14.5426 88.8182H15.5369L13.8665 99H12.8722ZM8.23864 96.1761L8.39773 95.1818H15.9943L15.8352 96.1761H8.23864ZM9.29261 99L10.9631 88.8182H11.9574L10.2869 99H9.29261ZM8.83523 92.6364L8.99432 91.642H16.5909L16.4318 92.6364H8.83523ZM18.065 99V88.8182H24.1701V89.9119H19.2979V93.3523H23.7127V94.446H19.2979V99H18.065ZM29.6824 88.8182V99H28.4494V90.1108H28.3897L25.9039 91.7614V90.5085L28.4494 88.8182H29.6824ZM32.9288 99L37.4828 89.9915V89.9119H32.2328V88.8182H38.7555V89.9716L34.2214 99H32.9288ZM43.6538 99.1392C43.0704 99.1392 42.5451 99.0232 42.0778 98.7912C41.6104 98.5592 41.2359 98.241 40.9542 97.8366C40.6725 97.4323 40.5183 96.9716 40.4918 96.4545H41.685C41.7314 96.9152 41.9402 97.2964 42.3114 97.598C42.686 97.8963 43.1334 98.0455 43.6538 98.0455C44.0714 98.0455 44.4426 97.9477 44.7674 97.7521C45.0955 97.5566 45.3524 97.2881 45.538 96.9467C45.7269 96.602 45.8214 96.2126 45.8214 95.7784C45.8214 95.3343 45.7236 94.9382 45.5281 94.5902C45.3358 94.2389 45.0707 93.9621 44.7326 93.7599C44.3945 93.5578 44.0084 93.455 43.5742 93.4517C43.2627 93.4484 42.9428 93.4964 42.6147 93.5959C42.2866 93.692 42.0165 93.8163 41.8043 93.9688L40.6509 93.8295L41.2674 88.8182H46.5572V89.9119H42.3015L41.9435 92.9148H42.0032C42.212 92.7491 42.4738 92.6115 42.7887 92.5021C43.1036 92.3928 43.4317 92.3381 43.7731 92.3381C44.3962 92.3381 44.9513 92.4872 45.4386 92.7855C45.9291 93.0805 46.3136 93.4848 46.592 93.9986C46.8737 94.5123 47.0146 95.099 47.0146 95.7585C47.0146 96.4081 46.8687 96.9882 46.5771 97.4986C46.2887 98.0057 45.891 98.4067 45.3839 98.7017C44.8768 98.9934 44.3001 99.1392 43.6538 99.1392ZM48.9895 99V98.1051L52.3503 94.4261C52.7447 93.9953 53.0695 93.6207 53.3248 93.3026C53.58 92.9811 53.7689 92.6795 53.8915 92.3977C54.0175 92.1127 54.0804 91.8144 54.0804 91.5028C54.0804 91.1449 53.9943 90.835 53.8219 90.5732C53.6529 90.3113 53.4209 90.1091 53.1259 89.9666C52.8309 89.8241 52.4995 89.7528 52.1316 89.7528C51.7405 89.7528 51.3991 89.834 51.1074 89.9964C50.8191 90.1555 50.5953 90.3793 50.4363 90.6676C50.2805 90.956 50.2026 91.294 50.2026 91.6818H49.0293C49.0293 91.0852 49.1668 90.5616 49.4419 90.1108C49.717 89.66 50.0916 89.3087 50.5655 89.0568C51.0428 88.8049 51.5781 88.679 52.1713 88.679C52.7679 88.679 53.2966 88.8049 53.7573 89.0568C54.218 89.3087 54.5792 89.6484 54.8411 90.076C55.1029 90.5036 55.2338 90.9792 55.2338 91.5028C55.2338 91.8774 55.1659 92.2436 55.03 92.6016C54.8974 92.9562 54.6654 93.3523 54.334 93.7898C54.0059 94.224 53.5501 94.7543 52.9668 95.3807L50.6799 97.8267V97.9062H55.4128V99H48.9895ZM60.8468 99.1392C60.4292 99.1326 60.0115 99.053 59.5939 98.9006C59.1763 98.7481 58.7952 98.4912 58.4505 98.13C58.1058 97.7654 57.829 97.2732 57.6202 96.6534C57.4114 96.0303 57.307 95.2481 57.307 94.3068C57.307 93.4053 57.3915 92.6065 57.5605 91.9105C57.7296 91.2112 57.9748 90.6229 58.2963 90.1456C58.6178 89.665 59.0056 89.3004 59.4597 89.0518C59.9171 88.8033 60.4325 88.679 61.0059 88.679C61.5759 88.679 62.083 88.7933 62.5272 89.022C62.9746 89.2474 63.3392 89.5623 63.6209 89.9666C63.9026 90.371 64.0849 90.8366 64.1678 91.3636H62.9547C62.842 90.9062 62.6233 90.5268 62.2985 90.2251C61.9737 89.9235 61.5428 89.7727 61.0059 89.7727C60.217 89.7727 59.5956 90.1158 59.1415 90.8018C58.6908 91.4879 58.4637 92.4508 58.4604 93.6903H58.54C58.7256 93.4086 58.946 93.1683 59.2012 92.9695C59.4597 92.7673 59.7447 92.6115 60.0563 92.5021C60.3678 92.3928 60.6976 92.3381 61.0456 92.3381C61.629 92.3381 62.1626 92.4839 62.6465 92.7756C63.1304 93.0639 63.5182 93.4633 63.8098 93.9737C64.1015 94.4808 64.2473 95.0625 64.2473 95.7188C64.2473 96.3485 64.1065 96.9252 63.8248 97.4489C63.543 97.9692 63.147 98.3835 62.6365 98.6918C62.1294 98.9967 61.5328 99.1458 60.8468 99.1392ZM60.8468 98.0455C61.2644 98.0455 61.6389 97.9411 61.9703 97.7322C62.3051 97.5234 62.5686 97.2434 62.7608 96.892C62.9564 96.5407 63.0542 96.1496 63.0542 95.7188C63.0542 95.2978 62.9597 94.915 62.7708 94.5703C62.5852 94.2223 62.3283 93.9455 62.0002 93.7401C61.6754 93.5346 61.3042 93.4318 60.8865 93.4318C60.5717 93.4318 60.2784 93.4948 60.0066 93.6207C59.7348 93.7434 59.4962 93.9124 59.2907 94.1278C59.0885 94.3433 58.9294 94.5902 58.8134 94.8686C58.6974 95.1437 58.6394 95.4337 58.6394 95.7386C58.6394 96.143 58.7338 96.5208 58.9228 96.8722C59.115 97.2235 59.3768 97.5069 59.7083 97.7223C60.043 97.9377 60.4225 98.0455 60.8468 98.0455Z" fill="black"/>
</svg>
