<?xml version="1.0" encoding="UTF-8" standalone="no"?>
<svg
   viewBox="0 0 32 32"
   width="32px"
   height="32px"
   version="1.1"
   id="svg1"
   sodipodi:docname="hand-zoom.svg"
   inkscape:version="1.4 (e7c3feb1, 2024-10-09)"
   xmlns:inkscape="http://www.inkscape.org/namespaces/inkscape"
   xmlns:sodipodi="http://sodipodi.sourceforge.net/DTD/sodipodi-0.dtd"
   xmlns="http://www.w3.org/2000/svg"
   xmlns:svg="http://www.w3.org/2000/svg">
  <defs
     id="defs1" />
  <sodipodi:namedview
     id="namedview1"
     pagecolor="#ffffff"
     bordercolor="#000000"
     borderopacity="0.25"
     inkscape:showpageshadow="2"
     inkscape:pageopacity="0.0"
     inkscape:pagecheckerboard="0"
     inkscape:deskcolor="#d1d1d1"
     inkscape:zoom="31.163138"
     inkscape:cx="8.648038"
     inkscape:cy="20.472906"
     inkscape:window-width="1920"
     inkscape:window-height="1027"
     inkscape:window-x="0"
     inkscape:window-y="25"
     inkscape:window-maximized="0"
     inkscape:current-layer="svg1" />
  <path
     d="M 20.733272,10.631349 C 19.676921,10.064895 18.341441,10.4698 17.772903,11.525032 L 12.925409,20.5222 c -0.7401,-0.69729 -1.34984,-1.433706 -1.940599,-2.091428 -0.680709,-0.889677 -1.7101559,-1.672156 -2.8472769,-1.328879 -1.1371209,0.343276 -1.785651,1.552684 -1.4423748,2.689806 l -0.010765,0.02007 5.0781037,7.693271 0.02939,0.04161 -0.0015,0.05092 c 0.517171,1.114061 1.388425,2.140163 2.630453,2.806185 l 1.104025,0.592019 c 2.913121,1.562125 6.517215,0.474114 8.07934,-2.439007 l 2.691,-5.018296 c 0.566455,-1.056351 0.162669,-2.393913 -0.893682,-2.960369 -0.273497,-0.146659 -0.567288,-0.207275 -0.859657,-0.228373 0.237283,-0.948568 -0.185269,-1.986051 -1.081035,-2.466395 -0.491793,-0.263718 -1.047042,-0.312702 -1.553783,-0.187064 -0.175747,-0.491614 -0.52379,-0.927009 -1.015583,-1.190727 -0.225823,-0.121095 -0.464668,-0.187785 -0.706927,-0.224009 l 1.442375,-2.689806 c 0.566456,-1.056351 0.16267,-2.393914 -0.893681,-2.960369 z m -0.688896,1.284684 c 0.3563,0.191061 0.488955,0.630492 0.297895,0.986791 l -3.788927,7.06576 1.284683,0.688895 1.377791,-2.569367 c 0.191061,-0.356299 0.630492,-0.488955 0.986791,-0.297894 0.356299,0.191061 0.488954,0.630491 0.297893,0.98679 l -1.377791,2.569367 1.284684,0.688896 1.377791,-2.569367 c 0.191061,-0.356299 0.630492,-0.488955 0.986789,-0.297895 0.3563,0.191061 0.488956,0.630491 0.297895,0.986791 l -1.377792,2.569366 1.344904,0.721188 0.688896,-1.284684 c 0.19106,-0.356298 0.63049,-0.488955 0.986789,-0.297894 0.3563,0.191061 0.488955,0.630492 0.297895,0.98679 l -2.690999,5.018297 c -1.193458,2.225613 -3.880147,3.036676 -6.105762,1.843218 l -1.104025,-0.59202 C 14.168845,28.614498 13.536177,27.842332 13.133008,26.973545 L 8.1627589,19.544057 C 7.8930845,19.161719 8.0084688,18.729014 8.3851764,18.46673 8.7560968,18.208475 9.2242888,18.307209 9.4832955,18.735841 l 3.8478455,4.15702 5.726446,-10.678933 c 0.191061,-0.356299 0.630491,-0.488956 0.986789,-0.297895 z"
     id="path1"
     style="stroke-width:1"
     sodipodi:nodetypes="csccscccccssssscscscsccscccsssccsssccssssssccsccss" />
  <g
     id="g1"
     transform="rotate(-24.698571,8.7899604,6.2906749)">
    <path
       style="fill:#000000;stroke-width:2.82709;-inkscape-stroke:none"
       d="m 5.9312032,11.924551 2.283881,-0.02608 2.4107428,-0.02752 0.09617,-1.8886151 4.216242,2.7328201 -4.390997,2.691097 0.022,-1.928584 -4.6678218,0.02857 z"
       id="path4"
       sodipodi:nodetypes="ccccccccc" />
    <path
       style="fill:#000000;stroke-width:2.82709;-inkscape-stroke:none"
       d="M 11.083154,13.423247 8.7994466,13.384793 6.3888889,13.344205 6.2394087,15.229349 2.1020505,12.378513 6.5673172,9.8125333 6.4908431,11.739727 11.15761,11.843028 Z"
       id="path5"
       sodipodi:nodetypes="ccccccccc" />
  </g>
</svg>
