<svg viewBox="0 0 391.2 224" xmlns="http://www.w3.org/2000/svg"><g fill="#f90"><path d="m367.2 131.9c.5-.4 1-.9 1.5-1.4 15.1-15 22.5-32.6 22.5-53.9s-7.4-39-22.5-54.1c-.5-.5-1-.9-1.5-1.4 0 0-.1-.1-.2-.1-10.1 8.4-21.4 14-33.8 16.8 4.3 2.1 8.3 5 11.9 8.5 8.4 8.4 12.6 18.7 12.5 30.3 0 11.6-4.2 21.7-12.5 30.1-3.5 3.6-7.5 6.4-11.8 8.5 12.4 2.8 23.7 8.4 33.8 16.9 0 0 .1 0 .1-.1"/><path d="m314.9 152.8h.4c2.3 0 4.6-.1 6.8-.3.6 0 1.1-.1 1.7-.2h.9c1.5-.3 2.9-.5 4.3-.7 1-.2 1.9-.4 2.8-.6h.5c1.2-.4 2.2-.6 3.2-.9l3.9-1.2c.8-.3 1.6-.6 2.4-.8 1.4-.6 2.9-1.1 4.3-1.8.4-.2.7-.3 1.1-.5l.5-.2c1.9-.9 3.4-1.7 4.7-2.5l.5-.3c3.3-2 6.5-4.2 9.4-6.6-13.8-11.3-29.4-16.8-47.5-16.8h-3.2c-.7-.2-1.3-.2-1.9-.3-.7 0-1.5-.2-2.1-.3h-.3c-.6-.1-1.1-.2-1.7-.3-.7-.2-1.4-.3-2-.5h-.3c-.5-.2-1-.4-1.6-.5-.6-.2-1.1-.4-1.7-.6l-.8-.3c-.4-.2-.9-.3-1.3-.5-.5-.2-1-.4-1.4-.7l-1-.5c-.4-.2-.8-.4-1.1-.6-.6-.3-1.2-.7-1.8-1.1l-.7-.4c-.3-.2-.7-.4-1-.6-.7-.5-1.4-1-2-1.5l-.3-.2c-.3-.2-.6-.5-1-.7-.8-.7-1.6-1.4-2.4-2.2l-.7-.7c-6.7-6.7-10.7-14.7-12-23.8-.3-2.3-.5-4.4-.5-6.3 0-11.7 4.1-21.9 12.4-30.3 1-1 2-2 3.1-2.9l.5-.4c.9-.8 1.8-1.5 2.8-2.1.2-.1.4-.2.6-.4l.3-.2c.8-.5 1.7-1.1 2.6-1.6.2-.1.5-.2.7-.4l.4-.2c.9-.4 1.7-.8 2.6-1.2.3-.1.6-.2.9-.4h.4c.8-.5 1.7-.8 2.5-1 .3 0 .7-.2 1-.3h.5c.8-.3 1.6-.6 2.5-.7.4 0 .8-.2 1.3-.2h.4c.8-.2 1.6-.3 2.4-.4.6 0 1.3-.1 1.9-.2l1.4-.2h1.9c18.2 0 33.8-5.5 47.5-16.7-3.1-2.5-6.3-4.8-9.6-6.7h-.2c-1.5-1-3.1-1.9-5-2.8l-1.2-.6c-1.5-.7-3-1.3-4.6-1.9-.7-.2-1.3-.5-2-.7-1.4-.5-2.8-.9-4.2-1.3-.7-.2-1.5-.4-2.2-.5l-1.1-.2c-1.1-.3-2.2-.5-3.3-.7-1-.2-1.9-.3-2.9-.4l-1.8-.2c-.8-.1-1.5-.2-2.3-.3-1.9-.2-3.8-.2-5.6-.2-.3 0-.5 0-.8 0s-.5 0-.8 0h-.3c-2 0-4.2 0-6.7.3h-.3c-.8 0-1.4.2-2.1.3l-2.8.4c-.8.1-1.7.2-2.5.4-1 .2-2.1.4-3.1.7l-1.8.4c-.6.1-1.2.3-1.7.4-1.5.4-3 .9-4.5 1.5l-.6.2c-.4.2-.8.3-1.2.4-1.8.7-3.5 1.5-4.9 2.1l-1.2.6c-1.7.9-3.4 1.8-5.1 2.8l-.8.4c-1.6 1-3.1 2.1-4.8 3.2l-.9.7c-1.4 1.1-2.8 2.2-4.2 3.4-1.6 1.4-2.9 2.6-4.1 3.7 0 .1-.2.2-.3.3l-.2.2c-2.9 3-5.7 6.2-8.3 9.9-9.4 13-14.1 27.5-14.1 44.3 0 21.3 7.4 38.9 22.4 53.9 1.6 1.6 3.2 3 4.7 4.2 1.4 1.1 2.7 2.2 4.1 3.3l.4.3c1.6 1.2 3.3 2.3 5.1 3.5l.9.6c1.6 1 3.3 1.9 5 2.8l1.4.7c1.4.6 3 1.4 4.7 2 .5.2 1 .4 1.5.6l.5.2c1.5.5 2.9 1 4.3 1.4.7.2 1.4.4 2.1.5l.8.2c1.5.4 2.6.6 3.9.9 1.1.2 2.3.4 3.4.5l1.2.2c.8.1 1.5.2 2.2.3 2.5.2 5 .3 7.6.4h.2z"/><path d="m248 21.1s-.1-.1-.2-.2c-10.1 8.4-21.4 14-33.8 16.7 4.3 2.1 8.3 5 11.8 8.5s6.3 7.5 8.4 11.8c2.7-12.4 8.4-23.8 16.8-33.9 0 0 0 0-.1-.1-.4-.5-.9-1-1.4-1.5s-1-.9-1.5-1.4"/><path d="m251 128.9c-8.4-10-14-21.4-16.8-33.8-2.1 4.2-4.9 8.1-8.4 11.6-8.3 8.4-18.5 12.6-30.3 12.6s-22.1-4.2-30.4-12.6c-3.5-3.5-6.2-7.4-8.3-11.6-2.7 12.5-8.4 23.9-16.8 33.9 0 0 0 0 .1.1.4.5.9 1 1.4 1.5 15.1 15 32.7 22.3 53.9 22.3s38.8-7.3 54-22.3c.5-.5.9-1 1.4-1.5 0 0 0 0 .1-.1"/><path d="m115.1 142.3.8-.4c1.8-1.1 3.5-2.3 5.2-3.5l.3-.2c1.6-1.2 3-2.3 4.3-3.4l1.1-.9c1.3-1.1 2.5-2.1 3.6-3.2 1.9-1.8 3.6-3.8 5.3-5.8.2-.2.3-.4.4-.6s.3-.4.4-.6c.9-1.1 1.7-2.2 2.5-3.3.5-.7.9-1.3 1.4-2 .8-1.2 1.5-2.3 2.2-3.5.4-.6.7-1.2 1.1-1.9.7-1.3 1.4-2.6 2.1-4 .2-.4.4-.8.6-1.3v-.3c.9-1.7 1.5-3.2 2-4.6l.4-1.1c.6-1.8 1.1-3.5 1.6-5.2l.2-.7c.5-2 .9-3.9 1.2-5.8v-.2c.7-4.3 1.1-8.7 1.1-13.2v-3.3h.2c0-.7.1-1.3.2-1.9 0-.7.2-1.4.3-2.2.1-.6.2-1.2.3-1.8.1-.8.3-1.5.5-2.2.2-.6.3-1.2.4-1.7.2-.8.5-1.5.8-2.3v-.4c.3-.4.4-.7.6-1.1.3-.8.7-1.5 1.1-2.3l.2-.5c.1-.3.3-.6.4-.9.4-.8.9-1.5 1.4-2.3l.3-.5c.1-.2.3-.5.5-.7.5-.8 1.1-1.6 1.7-2.3l.3-.3c.1-.2.3-.4.5-.6.9-1.1 1.8-2.1 2.8-3.1.9-1 2-2 3.1-2.9.2-.2.5-.4.8-.6l.6-.5c.6-.5 1.2-1 1.9-1.4.3-.2.6-.4 1-.6l.7-.4c.6-.4 1.2-.8 1.8-1.1.4-.2.7-.4 1.1-.5l.9-.4c.6-.3 1.1-.6 1.7-.8.4-.2.8-.3 1.2-.5l.5-.2c.8-.3 1.5-.6 2.2-.8.5-.1.9-.3 1.4-.4h.3c.7-.3 1.5-.5 2.2-.6.6-.1 1.1-.2 1.6-.3.9-.2 1.7-.3 2.5-.3.6 0 1.3-.1 1.9-.2h1.4c0-.1 1.9-.1 1.9-.1 18.2 0 33.8-5.5 47.5-16.7-3.1-2.5-6.3-4.8-9.6-6.7h-.2c-1.6-1.1-3.2-1.9-5.1-2.8l-1.2-.6c-1.4-.7-3-1.3-4.7-2-.6-.2-1.2-.4-1.8-.6-1.7-.6-3.1-1-4.4-1.4-.6-.2-1.3-.3-1.9-.5h-.5c-1.4-.4-2.8-.8-4.2-1-.7-.1-1.5-.2-2.2-.3l-1.8-.2c-1-.1-1.9-.3-2.9-.3-2.1-.2-4.2-.3-6.4-.3-.1 0-.3 0-.4 0h-.3c-2.2 0-4.5 0-7 .3h-.3c-.6 0-1.2.2-1.9.3l-2.8.4c-.3 0-.7 0-1 .1-.5 0-1 .1-1.4.2-1 .2-2 .4-3 .7l-1.4.3c-.6.2-1.3.3-1.9.5h-.4c-1.4.5-2.8 1-4.5 1.6l-.6.2c-.5.2-.9.3-1.3.5-1.4.5-2.9 1.2-4.7 2.1l-.8.4c-.2 0-.4.2-.5.3-1.7.8-3.3 1.8-5.1 2.8-.3.2-.5.3-.7.4-1.5.9-3.1 2-4.7 3.2l-1.2.9c-1.3 1-2.6 2.1-3.9 3.2-1.5 1.3-3.1 2.7-4.6 4.3-1.8 1.8-3.6 3.8-5.6 6.2-.8.9-1.5 1.9-2.2 2.9-.5.7-1.1 1.4-1.6 2.2-.8 1.1-1.5 2.2-2.2 3.4v.2c-.4.5-.8 1-1 1.5-.8 1.3-1.5 2.7-2.2 4.1l-.2.5c-.1.3-.3.5-.4.8-.7 1.4-1.3 3-2 4.8l-.4 1c-.6 1.6-1.2 3.4-1.7 5.3l-.2.7c-.5 1.8-.9 3.8-1.3 5.7v.2c-.5 2.2-.7 4.3-.9 6.4v.8c-.3 2.4-.4 4.9-.4 7.3v3.2c-.2.7-.2 1.3-.3 1.9 0 .7-.2 1.4-.3 2.2v.3c-.1.5-.2 1.1-.3 1.6-.2.7-.3 1.4-.5 2.1v.4c-.2.5-.3.9-.5 1.4-.2.7-.5 1.3-.7 2l-.2.4c-.2.4-.3.9-.5 1.3-.2.6-.5 1.2-.8 1.7l-.4.8c-.2.4-.4.7-.6 1.1-.3.6-.7 1.2-1.1 1.8l-.5.8c-.2.3-.4.6-.6.9-.5.7-1.1 1.4-1.6 2.1l-.4.5c-.2.2-.3.4-.5.7-.9 1.1-1.8 2.1-2.8 3.1s-2 1.9-3.1 2.9c-.2.2-.4.3-.6.5l-.3.2c-.8.6-1.6 1.2-2.4 1.8-.3.2-.6.4-.8.5l-.5.3c-.7.5-1.4.9-2.1 1.3-.4.2-.8.4-1.1.6l-.8.4c-.6.3-1.1.6-1.7.8-.4.2-.9.4-1.4.5l-.8.3c-.5.2-1 .4-1.6.6-.7.2-1.3.4-2 .6-.6.2-1.3.3-1.9.5-.7.2-1.4.3-2.1.4s-1.3.2-2 .3c-.7 0-1.4.1-2.1.2 0 .1-1.3.2-1.3.2h-1.9c-18.2 0-33.8 5.4-47.5 16.8 3 2.4 6.2 4.7 9.4 6.6h.2c1.6 1.1 3.2 1.9 5 2.8l.4.2c.3.1.6.3 1 .4 1.5.7 2.9 1.3 4.4 1.8.7.3 1.5.5 2.2.8 1.3.4 2.6.9 3.9 1.2 1.1.3 2.2.5 3.2.8h.6c.9.4 1.8.6 2.7.7 1.5.3 3.1.5 4.7.7h.9c.4.2.9.2 1.3.3 2.5.2 5 .3 7.4.3s5.2-.1 7.7-.4c.4 0 .9-.1 1.4-.2 2.2-.2 3.9-.5 5.6-.8.9-.1 1.8-.4 2.7-.6l1.5-.3c.9-.2 1.8-.4 2.6-.6 1.3-.4 2.7-.8 4-1.3l.8-.3c.5-.2 1-.4 1.5-.5 1.5-.6 3-1.2 4.8-2.1.4-.2.7-.3 1.1-.5h.2c1.6-.9 3.3-1.8 5.1-2.9"/><path d="m115.1 58c2.7-12.5 8.3-23.9 16.7-33.9 0 0-.1-.1-.1-.2-.4-.5-.9-1-1.4-1.5-15.2-15-32.8-22.4-54-22.4s-38.8 7.4-53.9 22.5-22.4 32.8-22.4 54.1 7.3 38.9 22.4 53.9c.5.5 1 .9 1.4 1.3 0 0 .1.1.2.2 10.1-8.4 21.4-14.1 33.7-16.9-4.3-2.1-8.2-4.9-11.8-8.5-8.3-8.3-12.5-18.5-12.5-30.1 0-11.7 4.1-21.9 12.3-30.3s18.4-12.7 30.3-12.7 22.2 4.3 30.5 12.7c3.5 3.5 6.3 7.5 8.4 11.8"/><path d="m128.6 217.5c-2.3-.7-4.2-1.6-5.6-2.6 0 0 3.7-4.3 7.3-3.1 1.9.6 3.7.9 5.6.9s3.6-.3 4.6-.9 1.5-1.4 1.5-2.5-.3-1.4-.9-1.9-1.3-.9-2.3-1.2-2.2-.6-3.7-1c-2.4-.6-4.4-1.1-5.9-1.7s-2.8-1.5-3.9-2.8-1.7-2.9-1.7-5.1.5-3.5 1.5-5 2.5-2.7 4.5-3.6 4.4-1.3 7.3-1.3 4 .2 5.9.7 3.6 1.2 5.1 2.1c0 0-2.5 4.1-6.7 3.5-1.6-.2-2.8-.5-4.3-.5s-3.6.3-4.5 1-1.5 1.5-1.5 2.6.6 1.9 1.7 2.4 2.9 1.1 5.2 1.6c2.4.6 4.4 1.1 5.9 1.7s2.9 1.5 3.9 2.7c1.1 1.2 1.6 2.9 1.6 5s-.5 3.5-1.5 4.9c-1 1.5-2.5 2.7-4.5 3.6s-4.5 1.3-7.4 1.3-4.9-.3-7.2-1z"/><path d="m250.3 216.4c-2.6-1.4-4.6-3.3-6.1-5.8s-2.2-5.3-2.2-8.4.8-5.9 2.2-8.4 3.5-4.4 6.1-5.8 5.5-2.1 8.8-2.1 5.2.5 7.4 1.4c2.2 1 4.1 2.4 5.6 4.2 0 0-5.2 3.7-6.8 2.4s-3.6-1.8-5.8-1.8-3.7.4-5.2 1.3-2.7 2.1-3.6 3.6-1.3 3.3-1.3 5.2.4 3.7 1.3 5.2 2.1 2.7 3.6 3.6 3.3 1.3 5.2 1.3 4-.5 5.7-1.7c2.2-1.6 7 2.3 7 2.3-1.5 1.8-3.4 3.2-5.6 4.2s-4.7 1.4-7.5 1.4-6.1-.7-8.7-2.1z"/><path d="m75.8 185.8c-9 0-16.3 7.3-16.3 16.4s7.3 16.4 16.3 16.4 16.3-7.3 16.3-16.4-7.3-16.4-16.3-16.4zm0 26.2c-5.4 0-9.8-4.4-9.8-9.9s4.4-9.9 9.8-9.9 9.8 4.4 9.8 9.9-4.4 9.9-9.8 9.9z"/><path d="m196.6 185.8c-9 0-16.4 7.3-16.4 16.4s7.3 16.4 16.4 16.4 16.4-7.3 16.4-16.4-7.3-16.4-16.4-16.4zm0 26.2c-5.4 0-9.9-4.4-9.9-9.9s4.4-9.9 9.9-9.9 9.9 4.4 9.9 9.9-4.4 9.9-9.9 9.9z"/><path d="m317.4 185.8c-9 0-16.4 7.3-16.4 16.4s7.3 16.4 16.4 16.4 16.4-7.3 16.4-16.4-7.3-16.4-16.4-16.4zm0 26.2c-5.4 0-9.9-4.4-9.9-9.9s4.4-9.9 9.9-9.9 9.9 4.4 9.9 9.9-4.4 9.9-9.9 9.9z"/><path d="m86.2 44.4-1.3 2.3-4.1-.6 3.7 2.4-1.3 3.8 3.3-2.1 3.1 3.1-.8-4.3 2.5-.6-3.4-1z"/></g></svg>