<?xml version="1.0" encoding="UTF-8" standalone="no"?>
<svg
   viewBox="0 0 32 32"
   width="32"
   height="32"
   version="1.1"
   id="svg1"
   sodipodi:docname="hand-cursor.svg"
   inkscape:version="1.4 (e7c3feb1, 2024-10-09)"
   xmlns:inkscape="http://www.inkscape.org/namespaces/inkscape"
   xmlns:sodipodi="http://sodipodi.sourceforge.net/DTD/sodipodi-0.dtd"
   xmlns="http://www.w3.org/2000/svg"
   xmlns:svg="http://www.w3.org/2000/svg">
  <defs
     id="defs1">
    <inkscape:path-effect
       effect="fillet_chamfer"
       id="path-effect5"
       is_visible="true"
       lpeversion="1"
       nodesatellites_param="F,0,0,1,0,8.6024599,0,1 @ F,0,0,1,0,8.6024599,0,1 @ F,0,0,1,0,8.6024599,0,1 @ F,0,0,1,0,8.6024599,0,1"
       radius="0"
       unit="px"
       method="auto"
       mode="F"
       chamfer_steps="1"
       flexible="false"
       use_knot_distance="true"
       apply_no_radius="true"
       apply_with_radius="true"
       only_selected="false"
       hide_knots="false" />
  </defs>
  <sodipodi:namedview
     id="namedview1"
     pagecolor="#ffffff"
     bordercolor="#000000"
     borderopacity="0.25"
     inkscape:showpageshadow="2"
     inkscape:pageopacity="0.0"
     inkscape:pagecheckerboard="0"
     inkscape:deskcolor="#d1d1d1"
     inkscape:zoom="15.344449"
     inkscape:cx="11.17668"
     inkscape:cy="12.577838"
     inkscape:window-width="1920"
     inkscape:window-height="1027"
     inkscape:window-x="-1"
     inkscape:window-y="25"
     inkscape:window-maximized="0"
     inkscape:current-layer="svg1"
     inkscape:export-bgcolor="#ffffff00">
    <inkscape:page
       x="0"
       y="0"
       width="32"
       height="32"
       id="page2"
       margin="0"
       bleed="0" />
  </sodipodi:namedview>
  <path
     style="fill:#000000;stroke-width:2.82709;-inkscape-stroke:none"
     d="m 15.492684,13.665803 -0.232221,-4.3140788 -1.889589,-0.07462 2.684547,-4.2471405 2.74101,4.3600133 h -1.92871 l 0.144193,4.257892 1.84644,0.03019 -2.636765,4.518132 -2.829499,-4.45511 z"
     id="path3"
     sodipodi:nodetypes="ccccccccccc" />
  <path
     style="fill:none;stroke:#000000;stroke-width:2.027;stroke-dasharray:none;stroke-opacity:1"
     id="rect5"
     width="18.834173"
     height="26.719761"
     x="6.4518447"
     y="3.3236773"
     ry="0"
     sodipodi:type="rect"
     rx="0"
     d="m 15.054305,3.3236773 h 1.629253 a 8.6024599,8.6024599 45 0 1 8.60246,8.6024597 v 9.514841 a 8.6024599,8.6024599 135 0 1 -8.60246,8.60246 l -1.629253,0 A 8.6024599,8.6024599 45 0 1 6.4518447,21.440978 V 11.926137 A 8.6024599,8.6024599 135 0 1 15.054305,3.3236773 Z"
     inkscape:path-effect="#path-effect5"
     transform="translate(0.05963503,-0.59635029)" />
</svg>
