<svg height="32" viewBox="0 0 32 32" width="32" xmlns="http://www.w3.org/2000/svg"><path d="m15.492684 13.665803-.232221-4.3140788-1.889589-.07462 2.684547-4.2471405 2.74101 4.3600133h-1.92871l.144193 4.257892 1.84644.03019-2.636765 4.518132-2.829499-4.45511z" stroke-width="2.82709"/><path d="m15.054305 3.3236773h1.629253a8.6024599 8.6024599 45 0 1 8.60246 8.6024597v9.514841a8.6024599 8.6024599 135 0 1 -8.60246 8.60246h-1.629253a8.6024599 8.6024599 45 0 1 -8.6024603-8.60246v-9.514841a8.6024599 8.6024599 135 0 1 8.6024603-8.6024597z" fill="none" height="26.719761" rx="0" ry="0" stroke="#000" stroke-width="2.027" transform="translate(.059635 -.59635)" width="18.834173" x="6.451845" y="3.323677"/></svg>